<svg preserveAspectRatio="none" overflow="visible" style="display: block;" width="95" height="24" viewBox="0 0 95 24" fill="none" xmlns="http://www.w3.org/2000/svg">
<g id="nav-logo.DeQ_NCjq 1" clip-path="url(#clip0_0_153)">
<path id="Vector" d="M14.0588 17.1306V18.1489C14.0588 18.643 13.7841 18.9201 13.2884 18.9201H0.770315C0.276799 18.9201 0 18.6451 0 18.1489V17.1306C0 16.6366 0.274652 16.3594 0.770315 16.3594H13.2906C13.7841 16.3594 14.0609 16.6344 14.0609 17.1306H14.0588ZM13.2048 9.42703L9.94113 7.54092C9.83382 7.47862 9.83382 7.32609 9.94113 7.2638L13.2048 5.37766C13.5738 5.16497 13.6983 4.69236 13.4859 4.32502L12.9773 3.44425C12.7649 3.07475 12.295 2.95015 11.926 3.16283L8.66227 5.04897C8.55504 5.11127 8.42196 5.03393 8.42196 4.91148V1.1349C8.42196 0.70955 8.0765 0.363685 7.65165 0.363685H6.63458C6.20972 0.363685 5.86426 0.70955 5.86426 1.1349V4.90934C5.86426 5.03179 5.73123 5.10912 5.62394 5.04683L2.3603 3.16068C1.99123 2.948 1.52132 3.07475 1.30889 3.4421L0.800355 4.32287C0.587929 4.69236 0.714526 5.16283 1.08145 5.3755L4.34509 7.26165C4.45238 7.32395 4.45238 7.47647 4.34509 7.53877L1.08145 9.42488C0.71238 9.63757 0.587929 10.1081 0.800355 10.4776L1.30889 11.3583C1.52132 11.7278 1.99123 11.8524 2.3603 11.6398L5.62394 9.7536C5.73123 9.69128 5.86426 9.76866 5.86426 9.89106V13.6655C5.86426 14.0909 6.20972 14.4367 6.63458 14.4367H7.65165C8.0765 14.4367 8.42196 14.0909 8.42196 13.6655V9.89106C8.42196 9.76866 8.55504 9.69128 8.66227 9.7536L11.926 11.6398C12.295 11.8524 12.7649 11.7257 12.9773 11.3583L13.4859 10.4776C13.6983 10.1081 13.5717 9.63757 13.2048 9.42488V9.42703Z" fill="#7379FD"/>
<path id="Vector_2" d="M21.7302 9.90794C22.4018 8.84458 23.788 8.10776 25.2192 8.10776C28.1438 8.10776 30.4633 10.5374 30.4633 13.6394C30.4633 16.7415 28.1459 19.1711 25.2192 19.1711C23.788 19.1711 22.4018 18.4343 21.7302 17.371V23.2979C21.7302 23.3859 21.6594 23.4569 21.5714 23.4569H19.3334C19.2454 23.4569 19.1746 23.3859 19.1746 23.2979V8.5267C19.1746 8.43856 19.2454 8.36772 19.3334 8.36772H21.5714C21.6594 8.36772 21.7302 8.43856 21.7302 8.5267V9.90794ZM24.7643 10.3634C22.9876 10.3634 21.6229 11.7748 21.6229 13.6394C21.6229 15.5062 22.9876 16.9155 24.7643 16.9155C26.5624 16.9155 27.927 15.5062 27.927 13.6394C27.927 11.7727 26.5624 10.3634 24.7643 10.3634Z" fill="black"/>
<path id="Vector_3" d="M40.2604 15.2254C40.6123 15.4531 41.5371 16.0481 41.8783 16.2673C41.9513 16.3145 41.9727 16.409 41.9298 16.4842C40.8998 18.2221 39.1597 19.1695 37.1748 19.1695C34.2052 19.1695 31.714 16.7614 31.714 13.6378C31.714 10.5143 34.2052 8.10614 37.1319 8.10614C40.2067 8.10614 42.3783 10.4885 42.3353 14.1083C42.3353 14.1963 42.2624 14.2673 42.1744 14.2673H34.1194C34.379 15.9386 35.6578 16.9783 37.1748 16.9783C38.5868 16.9783 39.3828 16.3596 40.0372 15.2769C40.0845 15.1996 40.1853 15.1738 40.2604 15.2232V15.2254ZM34.2266 12.51H39.7948C39.6209 11.3177 38.6897 10.2759 37.1298 10.2759C35.7651 10.2759 34.6365 11.1437 34.2266 12.51Z" fill="black"/>
<path id="Vector_4" d="M50.4661 8.52099C50.4896 8.44146 50.4489 8.35986 50.3738 8.32759C50.1463 8.23309 49.8803 8.1708 49.464 8.1708C48.1422 8.1708 47.0801 8.97211 46.5608 10.014V8.5253C46.5608 8.43716 46.49 8.36632 46.402 8.36632H44.164C44.076 8.36632 44.0052 8.43716 44.0052 8.5253V18.7486C44.0052 18.8368 44.076 18.9076 44.164 18.9076H46.402C46.49 18.9076 46.5608 18.8368 46.5608 18.7486V13.5285C46.5608 11.8142 47.6229 10.6864 49.1614 10.6864C49.3417 10.6864 49.5133 10.6993 49.6786 10.725C49.7601 10.7379 49.8373 10.6907 49.8588 10.6133C49.9811 10.1945 50.3459 8.93338 50.4661 8.52099Z" fill="black"/>
<path id="Vector_5" d="M50.859 16.2329L52.7751 15.5369C52.8587 15.5068 52.9489 15.5519 52.9789 15.6335C53.3244 16.5487 54.0196 17.1738 55.0067 17.1738C55.7856 17.1738 56.5022 16.6969 56.5022 15.829C56.5022 13.8548 51.3439 15.1781 51.3439 11.4036C51.3439 9.58196 52.8824 8.10614 55.0495 8.10614C56.8262 8.10614 58.1587 9.07498 58.6608 10.4671C58.6908 10.5508 58.6415 10.6453 58.5557 10.6711L56.6267 11.2705C56.5452 11.2962 56.4615 11.2511 56.4314 11.1695C56.1761 10.4628 55.674 10.0997 54.9637 10.0997C54.2921 10.0997 53.7278 10.5336 53.7278 11.2275C53.7278 13.1137 58.929 11.814 58.929 15.6743C58.929 17.713 57.0644 19.1674 54.9423 19.1674C53.0261 19.1674 51.3139 18.1019 50.7624 16.4284C50.7366 16.3467 50.7817 16.2587 50.8611 16.2307L50.859 16.2329Z" fill="black"/>
<path id="Vector_6" d="M65.5838 8.10614C68.6178 8.10614 71.1756 10.5143 71.1756 13.6378C71.1756 16.7614 68.6178 19.1695 65.5838 19.1695C62.5497 19.1695 60.0135 16.7614 60.0135 13.6378C60.0135 10.5143 62.5497 8.10614 65.5838 8.10614ZM65.5838 16.916C67.3819 16.916 68.7466 15.5068 68.7466 13.6399C68.7466 11.7732 67.3819 10.3639 65.5838 10.3639C63.8071 10.3639 62.4425 11.7753 62.4425 13.6399C62.4425 15.5068 63.8071 16.916 65.5838 16.916Z" fill="black"/>
<path id="Vector_7" d="M77.4619 10.3919C76.0521 10.3919 75.121 11.4767 75.121 13.1459V18.7571C75.121 18.8451 75.0501 18.9161 74.9621 18.9161H72.7241C72.6362 18.9161 72.5654 18.8451 72.5654 18.7571V8.53366C72.5654 8.4456 72.6362 8.37468 72.7241 8.37468H74.9621C75.0501 8.37468 75.121 8.4456 75.121 8.53366V9.78389C75.814 8.80866 76.8975 8.1126 78.3717 8.1126C80.7556 8.1126 82.1417 9.76245 82.1417 11.93V18.7549C82.1417 18.843 82.0709 18.9139 81.9829 18.9139H79.745C79.657 18.9139 79.5862 18.843 79.5862 18.7549V12.6239C79.5862 11.2577 78.8073 10.3898 77.4619 10.3898V10.3919Z" fill="black"/>
<path id="Vector_8" d="M94.7984 8.5272V18.7506C94.7984 18.8387 94.7274 18.9096 94.6398 18.9096H92.402C92.3136 18.9096 92.2425 18.8387 92.2425 18.7506V17.3693C91.5924 18.4327 90.2062 19.1695 88.7754 19.1695C85.8511 19.1695 83.5314 16.7398 83.5314 13.6378C83.5314 10.5358 85.8511 8.10614 88.7754 8.10614C90.2062 8.10614 91.5924 8.84516 92.2425 9.90637V8.52505C92.2425 8.43699 92.3136 8.36607 92.402 8.36607H94.6398C94.7274 8.36607 94.7984 8.43699 94.7984 8.52505V8.5272ZM89.2067 16.916C91.005 16.916 92.3697 15.5068 92.3697 13.6399C92.3697 11.7732 91.005 10.3639 89.2067 10.3639C87.4297 10.3639 86.065 11.7753 86.065 13.6399C86.065 15.5068 87.4297 16.916 89.2067 16.916Z" fill="black"/>
</g>
<defs>
<clipPath id="clip0_0_153">
<rect width="95" height="24" fill="white"/>
</clipPath>
</defs>
</svg>
